***************************************************************
 
http://www.torrentforce.org/imghost/3/greyshadow_tfbanner.png

***************************************************************
 
http://pix2links.com/images/09768788236082078213.jpg

***************************************************************

FILM TITLE: Transformers: Dark of the Moon (2011)

***************************************************************

Genre: Action | Adventure | Sci-Fi    

Release: 29 June 2011 (UK)

Director: Michael Bay 

Writer: Ehren Kruger 

Stars:  Shia LaBeouf, Rosie Huntington-Whiteley and Tyrese Gibson

Country: USA 

Language: English 

Plot:
The Autobots learn of a Cybertronian spacecraft hidden on the Moon, and race against the Decepticons to reach it and to learn its secrets.

IMDB Rating: 6.6/10 (76,529 votes)
 
http://www.imdb.com/title/tt1399103/ 

****************************************************************
 
http://pix2links.com/images/09128014119318280686.png 
http://pix2links.com/images/10322226751160301726.png 
http://pix2links.com/images/95515178211152243767.png 
http://pix2links.com/images/25131230646613087559.png

****************************************************************

[IMG]http://www.torrentforce.org/imghost/2/greyshadow_mediainfo.png[/IMG]
General
Complete name                    : Transformers-Dark Of The Moon 2011 720p BDRip x264 aac (mp4) [TFRG].mp4
Format                           : MPEG-4
Format profile                   : Base Media
Codec ID                         : isom
File size                        : 3.73 GiB
Duration                         : 2h 34mn
Overall bit rate                 : 3458 Kbps
Encoded date                     : UTC 2011-09-29 20:15:20
Tagged date                      : UTC 2011-09-29 20:15:20

Video
ID                               : 1
Format                           : AVC
Format/Info                      : Advanced Video Codec
Format profile                   : High@L4.1
Format settings, CABAC           : Yes
Format settings, ReFrames        : 11 frames
Codec ID                         : avc1
Codec ID/Info                    : Advanced Video Coding
Duration                         : 2h 34mn
Bit rate                         : 3199 Kbps
Maximum bit rate                 : 17.3 Mbps
Width                            : 1280 pixels
Height                           : 528 pixels
Display aspect ratio             : 2.40:1
Frame rate mode                  : Constant
Frame rate                       : 23.976 fps
Color space                      : YUV
Chroma subsampling               : 4:2:0
Bit depth                        : 8 bits
Scan type                        : Progressive
Bits/(Pixel*Frame)               : 0.197
Stream size                      : 3.45 GiB (92%)
Title                            : Transformers
Writing library                  : x264 core 118 r2085 8a62835
Encoded date                     : UTC 2011-09-28 09:33:31
Tagged date                      : UTC 2011-09-29 20:16:28
Color primaries                  : BT.709-5, BT.1361, IEC 61966-2-4, SMPTE RP177
Transfer characteristics         : BT.709-5, BT.1361
Matrix coefficients              : BT.709-5, BT.1361, IEC 61966-2-4 709, SMPTE RP177

Audio
ID                               : 2
Format                           : AAC
Format/Info                      : Advanced Audio Codec
Format profile                   : LC
Codec ID                         : 40
Duration                         : 2h 34mn
Bit rate mode                    : Variable
Bit rate                         : 256 Kbps
Maximum bit rate                 : 273 Kbps
Channel(s)                       : 6 channels
Channel positions                : Front: L C R, Side: L R, LFE
Sampling rate                    : 48.0 KHz
Compression mode                 : Lossy
Stream size                      : 282 MiB (7%)
Title                            : Transformers
Language                         : English
Encoded date                     : UTC 2011-09-29 20:16:24
Tagged date                      : UTC 2011-09-29 20:16:28

****************************************************************

Video Source: Transformers:Dark Of The Moon 2011 BluRay 1080p AVC TrueHD7.1-CHDBits (43GB) 

Thanks: CHP (chdbits.org) 

****************************************************************

I provide a small sample, so please download this to check your 
compatibility first if you are unsure.

****************************************************************

A big thanks to all the sites out there who care and share and
who make it possible for you to download this torrent for free.

Greetz to Westy, Ripwyn, mustang, noir, Blackjesus, MXMG, The Stig 
and all the other outstanding members of our community of file 
sharers and a special mention to our friends at 1337x.

****************************************************************